<mxfile host="Electron" modified="2023-08-30T06:29:55.060Z" agent="Mozilla/5.0 (Windows NT 10.0; Win64; x64) AppleWebKit/537.36 (KHTML, like Gecko) draw.io/21.6.5 Chrome/114.0.5735.243 Electron/25.3.1 Safari/537.36" etag="Ipk5L9T_FjqiPOrbdqw9" version="21.6.5" type="device">
  <diagram name="Page-1" id="3OccHQ3pMCAuk_XxAl_D">
    <mxGraphModel dx="2924" dy="2296" grid="1" gridSize="10" guides="1" tooltips="1" connect="1" arrows="1" fold="1" page="1" pageScale="1" pageWidth="850" pageHeight="1100" math="0" shadow="0">
      <root>
        <mxCell id="0" />
        <mxCell id="1" parent="0" />
        <mxCell id="LNynhRC9tcqbUKHaixpe-77" value="" style="shape=folder;fontStyle=1;tabWidth=60;tabHeight=20;tabPosition=left;html=1;boundedLbl=1;labelInHeader=1;container=1;collapsible=0;whiteSpace=wrap;" vertex="1" parent="1">
          <mxGeometry x="-175" y="580" width="880" height="180" as="geometry" />
        </mxCell>
        <mxCell id="LNynhRC9tcqbUKHaixpe-78" value="" style="html=1;strokeColor=none;resizeWidth=1;resizeHeight=1;fillColor=none;part=1;connectable=0;allowArrows=0;deletable=0;whiteSpace=wrap;" vertex="1" parent="LNynhRC9tcqbUKHaixpe-77">
          <mxGeometry width="879.9999999999999" height="126" relative="1" as="geometry">
            <mxPoint y="30" as="offset" />
          </mxGeometry>
        </mxCell>
        <mxCell id="LNynhRC9tcqbUKHaixpe-75" value="" style="shape=folder;fontStyle=1;tabWidth=60;tabHeight=20;tabPosition=left;html=1;boundedLbl=1;labelInHeader=1;container=1;collapsible=0;whiteSpace=wrap;" vertex="1" parent="1">
          <mxGeometry x="-175" y="-65" width="220" height="440" as="geometry" />
        </mxCell>
        <mxCell id="LNynhRC9tcqbUKHaixpe-76" value="" style="html=1;strokeColor=none;resizeWidth=1;resizeHeight=1;fillColor=none;part=1;connectable=0;allowArrows=0;deletable=0;whiteSpace=wrap;" vertex="1" parent="LNynhRC9tcqbUKHaixpe-75">
          <mxGeometry width="219.99999999999997" height="308" relative="1" as="geometry">
            <mxPoint y="30" as="offset" />
          </mxGeometry>
        </mxCell>
        <mxCell id="LNynhRC9tcqbUKHaixpe-7" value="" style="rounded=0;whiteSpace=wrap;html=1;" vertex="1" parent="1">
          <mxGeometry x="1270" y="90" width="260" height="440" as="geometry" />
        </mxCell>
        <mxCell id="LNynhRC9tcqbUKHaixpe-66" style="edgeStyle=orthogonalEdgeStyle;rounded=0;orthogonalLoop=1;jettySize=auto;html=1;entryX=0;entryY=0;entryDx=150;entryDy=40;entryPerimeter=0;dashed=1;endArrow=none;endFill=0;strokeWidth=2;startArrow=open;startFill=0;exitX=0;exitY=0;exitDx=0;exitDy=60;exitPerimeter=0;" edge="1" parent="1" source="LNynhRC9tcqbUKHaixpe-3" target="LNynhRC9tcqbUKHaixpe-24">
          <mxGeometry relative="1" as="geometry">
            <mxPoint x="1090" y="230" as="sourcePoint" />
            <Array as="points">
              <mxPoint x="1325" y="210" />
            </Array>
          </mxGeometry>
        </mxCell>
        <mxCell id="LNynhRC9tcqbUKHaixpe-69" value="&lt;font style=&quot;font-size: 14px;&quot;&gt;Use&lt;/font&gt;" style="edgeLabel;html=1;align=center;verticalAlign=middle;resizable=0;points=[];" vertex="1" connectable="0" parent="LNynhRC9tcqbUKHaixpe-66">
          <mxGeometry x="0.5701" y="2" relative="1" as="geometry">
            <mxPoint x="-67" y="-2" as="offset" />
          </mxGeometry>
        </mxCell>
        <mxCell id="LNynhRC9tcqbUKHaixpe-1" value="" style="shape=folder;fontStyle=1;tabWidth=50;tabHeight=20;tabPosition=left;html=1;boundedLbl=1;labelInHeader=1;container=1;collapsible=0;whiteSpace=wrap;" vertex="1" parent="1">
          <mxGeometry x="1325" y="270" width="150" height="100" as="geometry" />
        </mxCell>
        <mxCell id="LNynhRC9tcqbUKHaixpe-2" value="&lt;font style=&quot;font-size: 16px;&quot;&gt;Models&lt;/font&gt;" style="html=1;strokeColor=none;resizeWidth=1;resizeHeight=1;fillColor=none;part=1;connectable=0;allowArrows=0;deletable=0;whiteSpace=wrap;" vertex="1" parent="LNynhRC9tcqbUKHaixpe-1">
          <mxGeometry width="150" height="70" relative="1" as="geometry">
            <mxPoint y="30" as="offset" />
          </mxGeometry>
        </mxCell>
        <mxCell id="LNynhRC9tcqbUKHaixpe-63" style="edgeStyle=orthogonalEdgeStyle;rounded=0;orthogonalLoop=1;jettySize=auto;html=1;exitX=0;exitY=0;exitDx=0;exitDy=60;exitPerimeter=0;entryX=0.5;entryY=1;entryDx=0;entryDy=0;entryPerimeter=0;dashed=1;endArrow=none;endFill=0;strokeWidth=2;startArrow=open;startFill=0;" edge="1" parent="1" source="LNynhRC9tcqbUKHaixpe-1" target="LNynhRC9tcqbUKHaixpe-11">
          <mxGeometry relative="1" as="geometry" />
        </mxCell>
        <mxCell id="LNynhRC9tcqbUKHaixpe-64" value="&lt;font style=&quot;font-size: 14px;&quot;&gt;Use&lt;/font&gt;" style="edgeLabel;html=1;align=center;verticalAlign=middle;resizable=0;points=[];" vertex="1" connectable="0" parent="LNynhRC9tcqbUKHaixpe-63">
          <mxGeometry x="0.5664" y="-1" relative="1" as="geometry">
            <mxPoint as="offset" />
          </mxGeometry>
        </mxCell>
        <mxCell id="LNynhRC9tcqbUKHaixpe-3" value="" style="shape=folder;fontStyle=1;tabWidth=50;tabHeight=20;tabPosition=left;html=1;boundedLbl=1;labelInHeader=1;container=1;collapsible=0;whiteSpace=wrap;" vertex="1" parent="1">
          <mxGeometry x="1325" y="150" width="150" height="100" as="geometry" />
        </mxCell>
        <mxCell id="LNynhRC9tcqbUKHaixpe-4" value="&lt;font style=&quot;font-size: 16px;&quot;&gt;BusinessModels&lt;/font&gt;" style="html=1;strokeColor=none;resizeWidth=1;resizeHeight=1;fillColor=none;part=1;connectable=0;allowArrows=0;deletable=0;whiteSpace=wrap;" vertex="1" parent="LNynhRC9tcqbUKHaixpe-3">
          <mxGeometry width="150" height="70" relative="1" as="geometry">
            <mxPoint y="30" as="offset" />
          </mxGeometry>
        </mxCell>
        <mxCell id="LNynhRC9tcqbUKHaixpe-74" style="edgeStyle=orthogonalEdgeStyle;rounded=0;orthogonalLoop=1;jettySize=auto;html=1;exitX=0.5;exitY=1;exitDx=0;exitDy=0;exitPerimeter=0;entryX=0;entryY=0;entryDx=100;entryDy=20;entryPerimeter=0;dashed=1;endArrow=none;endFill=0;strokeWidth=2;startArrow=open;startFill=0;" edge="1" parent="1" source="LNynhRC9tcqbUKHaixpe-9" target="LNynhRC9tcqbUKHaixpe-24">
          <mxGeometry relative="1" as="geometry">
            <Array as="points">
              <mxPoint x="895" y="80" />
              <mxPoint x="640" y="80" />
            </Array>
          </mxGeometry>
        </mxCell>
        <mxCell id="LNynhRC9tcqbUKHaixpe-79" value="&lt;font style=&quot;font-size: 14px;&quot;&gt;Use&lt;/font&gt;" style="edgeLabel;html=1;align=center;verticalAlign=middle;resizable=0;points=[];" vertex="1" connectable="0" parent="LNynhRC9tcqbUKHaixpe-74">
          <mxGeometry x="0.129" y="-1" relative="1" as="geometry">
            <mxPoint x="7" y="1" as="offset" />
          </mxGeometry>
        </mxCell>
        <mxCell id="LNynhRC9tcqbUKHaixpe-9" value="" style="shape=folder;fontStyle=1;tabWidth=50;tabHeight=20;tabPosition=left;html=1;boundedLbl=1;labelInHeader=1;container=1;collapsible=0;whiteSpace=wrap;" vertex="1" parent="1">
          <mxGeometry x="820" y="-160" width="150" height="100" as="geometry" />
        </mxCell>
        <mxCell id="LNynhRC9tcqbUKHaixpe-10" value="&lt;font style=&quot;font-size: 16px;&quot;&gt;EntityFramework&lt;/font&gt;" style="html=1;strokeColor=none;resizeWidth=1;resizeHeight=1;fillColor=none;part=1;connectable=0;allowArrows=0;deletable=0;whiteSpace=wrap;" vertex="1" parent="LNynhRC9tcqbUKHaixpe-9">
          <mxGeometry width="150" height="70" relative="1" as="geometry">
            <mxPoint y="30" as="offset" />
          </mxGeometry>
        </mxCell>
        <mxCell id="LNynhRC9tcqbUKHaixpe-19" style="edgeStyle=orthogonalEdgeStyle;rounded=0;orthogonalLoop=1;jettySize=auto;html=1;dashed=1;strokeWidth=2;endArrow=open;endFill=0;" edge="1" parent="1" source="LNynhRC9tcqbUKHaixpe-11" target="LNynhRC9tcqbUKHaixpe-9">
          <mxGeometry relative="1" as="geometry">
            <Array as="points">
              <mxPoint x="1040" y="-100" />
              <mxPoint x="1040" y="-100" />
            </Array>
          </mxGeometry>
        </mxCell>
        <mxCell id="LNynhRC9tcqbUKHaixpe-20" value="&lt;font style=&quot;font-size: 13px;&quot;&gt;import&lt;/font&gt;" style="edgeLabel;html=1;align=center;verticalAlign=middle;resizable=0;points=[];" vertex="1" connectable="0" parent="LNynhRC9tcqbUKHaixpe-19">
          <mxGeometry x="-0.0048" y="-1" relative="1" as="geometry">
            <mxPoint as="offset" />
          </mxGeometry>
        </mxCell>
        <mxCell id="LNynhRC9tcqbUKHaixpe-11" value="" style="shape=folder;fontStyle=1;tabWidth=50;tabHeight=20;tabPosition=left;html=1;boundedLbl=1;labelInHeader=1;container=1;collapsible=0;whiteSpace=wrap;" vertex="1" parent="1">
          <mxGeometry x="1110" y="-160" width="150" height="100" as="geometry" />
        </mxCell>
        <mxCell id="LNynhRC9tcqbUKHaixpe-12" value="&lt;font style=&quot;font-size: 16px;&quot;&gt;Controllers&lt;/font&gt;" style="html=1;strokeColor=none;resizeWidth=1;resizeHeight=1;fillColor=none;part=1;connectable=0;allowArrows=0;deletable=0;whiteSpace=wrap;" vertex="1" parent="LNynhRC9tcqbUKHaixpe-11">
          <mxGeometry width="150" height="70" relative="1" as="geometry">
            <mxPoint y="30" as="offset" />
          </mxGeometry>
        </mxCell>
        <mxCell id="LNynhRC9tcqbUKHaixpe-17" style="edgeStyle=orthogonalEdgeStyle;rounded=0;orthogonalLoop=1;jettySize=auto;html=1;dashed=1;strokeWidth=2;endArrow=open;endFill=0;" edge="1" parent="1" source="LNynhRC9tcqbUKHaixpe-13" target="LNynhRC9tcqbUKHaixpe-9">
          <mxGeometry relative="1" as="geometry">
            <Array as="points">
              <mxPoint x="750" y="-100" />
              <mxPoint x="750" y="-100" />
            </Array>
          </mxGeometry>
        </mxCell>
        <mxCell id="LNynhRC9tcqbUKHaixpe-18" value="&lt;font style=&quot;font-size: 13px;&quot;&gt;import&lt;/font&gt;" style="edgeLabel;html=1;align=center;verticalAlign=middle;resizable=0;points=[];" vertex="1" connectable="0" parent="LNynhRC9tcqbUKHaixpe-17">
          <mxGeometry x="-0.1872" relative="1" as="geometry">
            <mxPoint x="8" as="offset" />
          </mxGeometry>
        </mxCell>
        <mxCell id="LNynhRC9tcqbUKHaixpe-13" value="" style="shape=folder;fontStyle=1;tabWidth=50;tabHeight=20;tabPosition=left;html=1;boundedLbl=1;labelInHeader=1;container=1;collapsible=0;whiteSpace=wrap;" vertex="1" parent="1">
          <mxGeometry x="540" y="-160" width="150" height="100" as="geometry" />
        </mxCell>
        <mxCell id="LNynhRC9tcqbUKHaixpe-14" value="&lt;font style=&quot;font-size: 16px;&quot;&gt;Data&lt;/font&gt;" style="html=1;strokeColor=none;resizeWidth=1;resizeHeight=1;fillColor=none;part=1;connectable=0;allowArrows=0;deletable=0;whiteSpace=wrap;" vertex="1" parent="LNynhRC9tcqbUKHaixpe-13">
          <mxGeometry width="150" height="70" relative="1" as="geometry">
            <mxPoint y="30" as="offset" />
          </mxGeometry>
        </mxCell>
        <mxCell id="LNynhRC9tcqbUKHaixpe-22" style="edgeStyle=orthogonalEdgeStyle;rounded=0;orthogonalLoop=1;jettySize=auto;html=1;entryX=0.502;entryY=0.155;entryDx=0;entryDy=0;entryPerimeter=0;dashed=1;strokeWidth=2;endArrow=open;endFill=0;" edge="1" parent="1" source="LNynhRC9tcqbUKHaixpe-15" target="LNynhRC9tcqbUKHaixpe-9">
          <mxGeometry relative="1" as="geometry" />
        </mxCell>
        <mxCell id="LNynhRC9tcqbUKHaixpe-23" value="&lt;font style=&quot;font-size: 13px;&quot;&gt;import&lt;/font&gt;" style="edgeLabel;html=1;align=center;verticalAlign=middle;resizable=0;points=[];" vertex="1" connectable="0" parent="LNynhRC9tcqbUKHaixpe-22">
          <mxGeometry x="-0.1258" y="-1" relative="1" as="geometry">
            <mxPoint x="-1" y="-4" as="offset" />
          </mxGeometry>
        </mxCell>
        <mxCell id="LNynhRC9tcqbUKHaixpe-15" value="" style="shape=folder;fontStyle=1;tabWidth=50;tabHeight=20;tabPosition=left;html=1;boundedLbl=1;labelInHeader=1;container=1;collapsible=0;whiteSpace=wrap;" vertex="1" parent="1">
          <mxGeometry x="820" y="-370" width="150" height="100" as="geometry" />
        </mxCell>
        <mxCell id="LNynhRC9tcqbUKHaixpe-16" value="&lt;font style=&quot;font-size: 16px;&quot;&gt;Managers&lt;/font&gt;" style="html=1;strokeColor=none;resizeWidth=1;resizeHeight=1;fillColor=none;part=1;connectable=0;allowArrows=0;deletable=0;whiteSpace=wrap;" vertex="1" parent="LNynhRC9tcqbUKHaixpe-15">
          <mxGeometry width="150" height="70" relative="1" as="geometry">
            <mxPoint y="30" as="offset" />
          </mxGeometry>
        </mxCell>
        <mxCell id="LNynhRC9tcqbUKHaixpe-59" style="edgeStyle=orthogonalEdgeStyle;rounded=0;orthogonalLoop=1;jettySize=auto;html=1;exitX=0;exitY=0;exitDx=0;exitDy=60;exitPerimeter=0;entryX=0;entryY=0;entryDx=150;entryDy=60;entryPerimeter=0;strokeWidth=2;dashed=1;endArrow=open;endFill=0;" edge="1" parent="1" source="LNynhRC9tcqbUKHaixpe-24" target="LNynhRC9tcqbUKHaixpe-26">
          <mxGeometry relative="1" as="geometry" />
        </mxCell>
        <mxCell id="LNynhRC9tcqbUKHaixpe-61" style="edgeStyle=orthogonalEdgeStyle;rounded=0;orthogonalLoop=1;jettySize=auto;html=1;entryX=0.498;entryY=0.212;entryDx=0;entryDy=0;entryPerimeter=0;dashed=1;endArrow=open;endFill=0;strokeWidth=2;" edge="1" parent="1" source="LNynhRC9tcqbUKHaixpe-24" target="LNynhRC9tcqbUKHaixpe-28">
          <mxGeometry relative="1" as="geometry" />
        </mxCell>
        <mxCell id="LNynhRC9tcqbUKHaixpe-80" style="edgeStyle=orthogonalEdgeStyle;rounded=0;orthogonalLoop=1;jettySize=auto;html=1;dashed=1;dashPattern=8 8;strokeWidth=2;exitX=0;exitY=0;exitDx=150;exitDy=80;exitPerimeter=0;entryX=0;entryY=0;entryDx=0;entryDy=40;entryPerimeter=0;" edge="1" parent="1" source="LNynhRC9tcqbUKHaixpe-24" target="LNynhRC9tcqbUKHaixpe-67">
          <mxGeometry relative="1" as="geometry">
            <mxPoint x="1220" y="450" as="targetPoint" />
            <Array as="points">
              <mxPoint x="1150" y="250" />
              <mxPoint x="1150" y="430" />
            </Array>
          </mxGeometry>
        </mxCell>
        <mxCell id="LNynhRC9tcqbUKHaixpe-81" value="&lt;font style=&quot;font-size: 14px;&quot;&gt;Use&lt;/font&gt;" style="edgeLabel;html=1;align=center;verticalAlign=middle;resizable=0;points=[];" vertex="1" connectable="0" parent="LNynhRC9tcqbUKHaixpe-80">
          <mxGeometry x="-0.8639" y="-1" relative="1" as="geometry">
            <mxPoint x="15" y="-1" as="offset" />
          </mxGeometry>
        </mxCell>
        <mxCell id="LNynhRC9tcqbUKHaixpe-24" value="" style="shape=folder;fontStyle=1;tabWidth=50;tabHeight=20;tabPosition=left;html=1;boundedLbl=1;labelInHeader=1;container=1;collapsible=0;whiteSpace=wrap;" vertex="1" parent="1">
          <mxGeometry x="540" y="170" width="150" height="100" as="geometry" />
        </mxCell>
        <mxCell id="LNynhRC9tcqbUKHaixpe-25" value="&lt;font style=&quot;font-size: 16px;&quot;&gt;Services&lt;br&gt;(frontend)&lt;br&gt;&lt;/font&gt;" style="html=1;strokeColor=none;resizeWidth=1;resizeHeight=1;fillColor=none;part=1;connectable=0;allowArrows=0;deletable=0;whiteSpace=wrap;" vertex="1" parent="LNynhRC9tcqbUKHaixpe-24">
          <mxGeometry width="150" height="70" relative="1" as="geometry">
            <mxPoint y="30" as="offset" />
          </mxGeometry>
        </mxCell>
        <mxCell id="LNynhRC9tcqbUKHaixpe-58" style="edgeStyle=orthogonalEdgeStyle;rounded=0;orthogonalLoop=1;jettySize=auto;html=1;exitX=0.506;exitY=0.189;exitDx=0;exitDy=0;exitPerimeter=0;entryX=0.5;entryY=1;entryDx=0;entryDy=0;entryPerimeter=0;dashed=1;strokeWidth=2;endArrow=open;endFill=0;" edge="1" parent="1" source="LNynhRC9tcqbUKHaixpe-26" target="LNynhRC9tcqbUKHaixpe-30">
          <mxGeometry relative="1" as="geometry" />
        </mxCell>
        <mxCell id="LNynhRC9tcqbUKHaixpe-26" value="" style="shape=folder;fontStyle=1;tabWidth=50;tabHeight=20;tabPosition=left;html=1;boundedLbl=1;labelInHeader=1;container=1;collapsible=0;whiteSpace=wrap;" vertex="1" parent="1">
          <mxGeometry x="160" y="170" width="150" height="100" as="geometry" />
        </mxCell>
        <mxCell id="LNynhRC9tcqbUKHaixpe-27" value="&lt;font style=&quot;font-size: 16px;&quot;&gt;Pages&lt;/font&gt;" style="html=1;strokeColor=none;resizeWidth=1;resizeHeight=1;fillColor=none;part=1;connectable=0;allowArrows=0;deletable=0;whiteSpace=wrap;" vertex="1" parent="LNynhRC9tcqbUKHaixpe-26">
          <mxGeometry width="150" height="70" relative="1" as="geometry">
            <mxPoint y="30" as="offset" />
          </mxGeometry>
        </mxCell>
        <mxCell id="LNynhRC9tcqbUKHaixpe-60" style="edgeStyle=orthogonalEdgeStyle;rounded=0;orthogonalLoop=1;jettySize=auto;html=1;exitX=0;exitY=0;exitDx=0;exitDy=60;exitPerimeter=0;entryX=0;entryY=0;entryDx=150;entryDy=60;entryPerimeter=0;dashed=1;endArrow=open;endFill=0;strokeWidth=2;" edge="1" parent="1" source="LNynhRC9tcqbUKHaixpe-28" target="LNynhRC9tcqbUKHaixpe-32">
          <mxGeometry relative="1" as="geometry" />
        </mxCell>
        <mxCell id="LNynhRC9tcqbUKHaixpe-28" value="" style="shape=folder;fontStyle=1;tabWidth=50;tabHeight=20;tabPosition=left;html=1;boundedLbl=1;labelInHeader=1;container=1;collapsible=0;whiteSpace=wrap;" vertex="1" parent="1">
          <mxGeometry x="540" y="370" width="150" height="100" as="geometry" />
        </mxCell>
        <mxCell id="LNynhRC9tcqbUKHaixpe-29" value="&lt;font style=&quot;font-size: 16px;&quot;&gt;Shared&lt;br&gt;(pages)&lt;br&gt;&lt;/font&gt;" style="html=1;strokeColor=none;resizeWidth=1;resizeHeight=1;fillColor=none;part=1;connectable=0;allowArrows=0;deletable=0;whiteSpace=wrap;" vertex="1" parent="LNynhRC9tcqbUKHaixpe-28">
          <mxGeometry width="150" height="70" relative="1" as="geometry">
            <mxPoint y="30" as="offset" />
          </mxGeometry>
        </mxCell>
        <mxCell id="LNynhRC9tcqbUKHaixpe-56" style="edgeStyle=orthogonalEdgeStyle;rounded=0;orthogonalLoop=1;jettySize=auto;html=1;strokeWidth=2;dashed=1;endArrow=open;endFill=0;entryX=0.997;entryY=0.195;entryDx=0;entryDy=0;entryPerimeter=0;" edge="1" parent="1" source="LNynhRC9tcqbUKHaixpe-30" target="LNynhRC9tcqbUKHaixpe-75">
          <mxGeometry relative="1" as="geometry">
            <mxPoint x="50" y="20" as="targetPoint" />
            <Array as="points">
              <mxPoint x="44" y="20" />
            </Array>
          </mxGeometry>
        </mxCell>
        <mxCell id="LNynhRC9tcqbUKHaixpe-30" value="" style="shape=folder;fontStyle=1;tabWidth=50;tabHeight=20;tabPosition=left;html=1;boundedLbl=1;labelInHeader=1;container=1;collapsible=0;whiteSpace=wrap;" vertex="1" parent="1">
          <mxGeometry x="160" y="-30" width="150" height="100" as="geometry" />
        </mxCell>
        <mxCell id="LNynhRC9tcqbUKHaixpe-31" value="&lt;font style=&quot;font-size: 16px;&quot;&gt;Core&lt;/font&gt;" style="html=1;strokeColor=none;resizeWidth=1;resizeHeight=1;fillColor=none;part=1;connectable=0;allowArrows=0;deletable=0;whiteSpace=wrap;" vertex="1" parent="LNynhRC9tcqbUKHaixpe-30">
          <mxGeometry width="150" height="70" relative="1" as="geometry">
            <mxPoint y="30" as="offset" />
          </mxGeometry>
        </mxCell>
        <mxCell id="LNynhRC9tcqbUKHaixpe-47" style="edgeStyle=orthogonalEdgeStyle;rounded=0;orthogonalLoop=1;jettySize=auto;html=1;strokeWidth=2;dashed=1;endArrow=open;endFill=0;entryX=0.466;entryY=0.102;entryDx=0;entryDy=0;entryPerimeter=0;" edge="1" parent="1" source="LNynhRC9tcqbUKHaixpe-32" target="LNynhRC9tcqbUKHaixpe-77">
          <mxGeometry relative="1" as="geometry">
            <mxPoint x="235" y="590" as="targetPoint" />
          </mxGeometry>
        </mxCell>
        <mxCell id="LNynhRC9tcqbUKHaixpe-32" value="" style="shape=folder;fontStyle=1;tabWidth=50;tabHeight=20;tabPosition=left;html=1;boundedLbl=1;labelInHeader=1;container=1;collapsible=0;whiteSpace=wrap;" vertex="1" parent="1">
          <mxGeometry x="160" y="370" width="150" height="100" as="geometry" />
        </mxCell>
        <mxCell id="LNynhRC9tcqbUKHaixpe-33" value="&lt;font style=&quot;font-size: 16px;&quot;&gt;Components&lt;/font&gt;" style="html=1;strokeColor=none;resizeWidth=1;resizeHeight=1;fillColor=none;part=1;connectable=0;allowArrows=0;deletable=0;whiteSpace=wrap;" vertex="1" parent="LNynhRC9tcqbUKHaixpe-32">
          <mxGeometry width="150" height="70" relative="1" as="geometry">
            <mxPoint y="30" as="offset" />
          </mxGeometry>
        </mxCell>
        <mxCell id="LNynhRC9tcqbUKHaixpe-38" value="" style="shape=folder;fontStyle=1;tabWidth=50;tabHeight=20;tabPosition=left;html=1;boundedLbl=1;labelInHeader=1;container=1;collapsible=0;whiteSpace=wrap;" vertex="1" parent="1">
          <mxGeometry x="15" y="640" width="150" height="100" as="geometry" />
        </mxCell>
        <mxCell id="LNynhRC9tcqbUKHaixpe-39" value="&lt;font style=&quot;font-size: 16px;&quot;&gt;Displays&lt;/font&gt;" style="html=1;strokeColor=none;resizeWidth=1;resizeHeight=1;fillColor=none;part=1;connectable=0;allowArrows=0;deletable=0;whiteSpace=wrap;" vertex="1" parent="LNynhRC9tcqbUKHaixpe-38">
          <mxGeometry width="150" height="70" relative="1" as="geometry">
            <mxPoint y="30" as="offset" />
          </mxGeometry>
        </mxCell>
        <mxCell id="LNynhRC9tcqbUKHaixpe-40" value="" style="shape=folder;fontStyle=1;tabWidth=50;tabHeight=20;tabPosition=left;html=1;boundedLbl=1;labelInHeader=1;container=1;collapsible=0;whiteSpace=wrap;" vertex="1" parent="1">
          <mxGeometry x="185" y="640" width="150" height="100" as="geometry" />
        </mxCell>
        <mxCell id="LNynhRC9tcqbUKHaixpe-41" value="&lt;font style=&quot;font-size: 16px;&quot;&gt;DropDown&lt;/font&gt;" style="html=1;strokeColor=none;resizeWidth=1;resizeHeight=1;fillColor=none;part=1;connectable=0;allowArrows=0;deletable=0;whiteSpace=wrap;" vertex="1" parent="LNynhRC9tcqbUKHaixpe-40">
          <mxGeometry width="150" height="70" relative="1" as="geometry">
            <mxPoint y="30" as="offset" />
          </mxGeometry>
        </mxCell>
        <mxCell id="LNynhRC9tcqbUKHaixpe-42" value="" style="shape=folder;fontStyle=1;tabWidth=50;tabHeight=20;tabPosition=left;html=1;boundedLbl=1;labelInHeader=1;container=1;collapsible=0;whiteSpace=wrap;" vertex="1" parent="1">
          <mxGeometry x="355" y="640" width="150" height="100" as="geometry" />
        </mxCell>
        <mxCell id="LNynhRC9tcqbUKHaixpe-43" value="&lt;font style=&quot;font-size: 16px;&quot;&gt;FormEditing&lt;/font&gt;" style="html=1;strokeColor=none;resizeWidth=1;resizeHeight=1;fillColor=none;part=1;connectable=0;allowArrows=0;deletable=0;whiteSpace=wrap;" vertex="1" parent="LNynhRC9tcqbUKHaixpe-42">
          <mxGeometry width="150" height="70" relative="1" as="geometry">
            <mxPoint y="30" as="offset" />
          </mxGeometry>
        </mxCell>
        <mxCell id="LNynhRC9tcqbUKHaixpe-44" value="" style="shape=folder;fontStyle=1;tabWidth=50;tabHeight=20;tabPosition=left;html=1;boundedLbl=1;labelInHeader=1;container=1;collapsible=0;whiteSpace=wrap;" vertex="1" parent="1">
          <mxGeometry x="525" y="640" width="150" height="100" as="geometry" />
        </mxCell>
        <mxCell id="LNynhRC9tcqbUKHaixpe-45" value="&lt;font style=&quot;font-size: 16px;&quot;&gt;ImageHandling&lt;/font&gt;" style="html=1;strokeColor=none;resizeWidth=1;resizeHeight=1;fillColor=none;part=1;connectable=0;allowArrows=0;deletable=0;whiteSpace=wrap;" vertex="1" parent="LNynhRC9tcqbUKHaixpe-44">
          <mxGeometry width="150" height="70" relative="1" as="geometry">
            <mxPoint y="30" as="offset" />
          </mxGeometry>
        </mxCell>
        <mxCell id="LNynhRC9tcqbUKHaixpe-48" value="" style="shape=folder;fontStyle=1;tabWidth=50;tabHeight=20;tabPosition=left;html=1;boundedLbl=1;labelInHeader=1;container=1;collapsible=0;whiteSpace=wrap;" vertex="1" parent="1">
          <mxGeometry x="-140" y="-20" width="150" height="100" as="geometry" />
        </mxCell>
        <mxCell id="LNynhRC9tcqbUKHaixpe-49" value="&lt;font style=&quot;font-size: 16px;&quot;&gt;Helpers&lt;/font&gt;" style="html=1;strokeColor=none;resizeWidth=1;resizeHeight=1;fillColor=none;part=1;connectable=0;allowArrows=0;deletable=0;whiteSpace=wrap;" vertex="1" parent="LNynhRC9tcqbUKHaixpe-48">
          <mxGeometry width="150" height="70" relative="1" as="geometry">
            <mxPoint y="30" as="offset" />
          </mxGeometry>
        </mxCell>
        <mxCell id="LNynhRC9tcqbUKHaixpe-50" value="" style="shape=folder;fontStyle=1;tabWidth=50;tabHeight=20;tabPosition=left;html=1;boundedLbl=1;labelInHeader=1;container=1;collapsible=0;whiteSpace=wrap;" vertex="1" parent="1">
          <mxGeometry x="-140" y="105" width="150" height="100" as="geometry" />
        </mxCell>
        <mxCell id="LNynhRC9tcqbUKHaixpe-51" value="&lt;font style=&quot;font-size: 16px;&quot;&gt;Managers&lt;/font&gt;" style="html=1;strokeColor=none;resizeWidth=1;resizeHeight=1;fillColor=none;part=1;connectable=0;allowArrows=0;deletable=0;whiteSpace=wrap;" vertex="1" parent="LNynhRC9tcqbUKHaixpe-50">
          <mxGeometry width="150" height="70" relative="1" as="geometry">
            <mxPoint y="30" as="offset" />
          </mxGeometry>
        </mxCell>
        <mxCell id="LNynhRC9tcqbUKHaixpe-52" value="" style="shape=folder;fontStyle=1;tabWidth=50;tabHeight=20;tabPosition=left;html=1;boundedLbl=1;labelInHeader=1;container=1;collapsible=0;whiteSpace=wrap;" vertex="1" parent="1">
          <mxGeometry x="-140" y="230" width="150" height="100" as="geometry" />
        </mxCell>
        <mxCell id="LNynhRC9tcqbUKHaixpe-53" value="&lt;font style=&quot;font-size: 16px;&quot;&gt;Utilities&lt;/font&gt;" style="html=1;strokeColor=none;resizeWidth=1;resizeHeight=1;fillColor=none;part=1;connectable=0;allowArrows=0;deletable=0;whiteSpace=wrap;" vertex="1" parent="LNynhRC9tcqbUKHaixpe-52">
          <mxGeometry width="150" height="70" relative="1" as="geometry">
            <mxPoint y="30" as="offset" />
          </mxGeometry>
        </mxCell>
        <mxCell id="LNynhRC9tcqbUKHaixpe-62" value="ClassLibrary project" style="text;html=1;align=center;verticalAlign=middle;resizable=0;points=[];autosize=1;strokeColor=none;fillColor=none;fontSize=18;" vertex="1" parent="1">
          <mxGeometry x="1310" y="90" width="180" height="40" as="geometry" />
        </mxCell>
        <mxCell id="LNynhRC9tcqbUKHaixpe-72" style="edgeStyle=orthogonalEdgeStyle;rounded=0;orthogonalLoop=1;jettySize=auto;html=1;exitX=0;exitY=0;exitDx=0;exitDy=60;exitPerimeter=0;entryX=0.75;entryY=1;entryDx=0;entryDy=0;entryPerimeter=0;dashed=1;dashPattern=8 8;strokeWidth=2;startArrow=open;startFill=0;endArrow=none;endFill=0;" edge="1" parent="1" source="LNynhRC9tcqbUKHaixpe-67" target="LNynhRC9tcqbUKHaixpe-11">
          <mxGeometry relative="1" as="geometry" />
        </mxCell>
        <mxCell id="LNynhRC9tcqbUKHaixpe-73" value="&lt;font style=&quot;font-size: 14px;&quot;&gt;Use&lt;/font&gt;" style="edgeLabel;html=1;align=center;verticalAlign=middle;resizable=0;points=[];" vertex="1" connectable="0" parent="LNynhRC9tcqbUKHaixpe-72">
          <mxGeometry x="0.699" relative="1" as="geometry">
            <mxPoint y="24" as="offset" />
          </mxGeometry>
        </mxCell>
        <mxCell id="LNynhRC9tcqbUKHaixpe-67" value="" style="shape=folder;fontStyle=1;tabWidth=50;tabHeight=20;tabPosition=left;html=1;boundedLbl=1;labelInHeader=1;container=1;collapsible=0;whiteSpace=wrap;" vertex="1" parent="1">
          <mxGeometry x="1325" y="390" width="150" height="100" as="geometry" />
        </mxCell>
        <mxCell id="LNynhRC9tcqbUKHaixpe-68" value="&lt;font style=&quot;font-size: 16px;&quot;&gt;Enums&lt;/font&gt;" style="html=1;strokeColor=none;resizeWidth=1;resizeHeight=1;fillColor=none;part=1;connectable=0;allowArrows=0;deletable=0;whiteSpace=wrap;" vertex="1" parent="LNynhRC9tcqbUKHaixpe-67">
          <mxGeometry width="150" height="70" relative="1" as="geometry">
            <mxPoint y="30" as="offset" />
          </mxGeometry>
        </mxCell>
        <mxCell id="LNynhRC9tcqbUKHaixpe-34" value="" style="shape=folder;fontStyle=1;tabWidth=50;tabHeight=20;tabPosition=left;html=1;boundedLbl=1;labelInHeader=1;container=1;collapsible=0;whiteSpace=wrap;" vertex="1" parent="1">
          <mxGeometry x="-155" y="640" width="150" height="100" as="geometry" />
        </mxCell>
        <mxCell id="LNynhRC9tcqbUKHaixpe-35" value="&lt;font style=&quot;font-size: 16px;&quot;&gt;Dialogs&lt;/font&gt;" style="html=1;strokeColor=none;resizeWidth=1;resizeHeight=1;fillColor=none;part=1;connectable=0;allowArrows=0;deletable=0;whiteSpace=wrap;" vertex="1" parent="LNynhRC9tcqbUKHaixpe-34">
          <mxGeometry width="150" height="70" relative="1" as="geometry">
            <mxPoint y="30" as="offset" />
          </mxGeometry>
        </mxCell>
      </root>
    </mxGraphModel>
  </diagram>
</mxfile>
